HIERARCHY
ROOT Hips
{
  OFFSET -62.1897 95.9407 -167.404
  CHANNELS 6 Xposition Yposition Zposition Zrotation Xrotation Yrotation
  JOINT ToSpine
  {
    OFFSET -2.69724 7.43032 -0.144315
    CHANNELS 3 Zrotation Xrotation Yrotation
    JOINT Spine
    {
      OFFSET -0.0310711 10.7595 1.96963
      CHANNELS 3 Zrotation Xrotation Yrotation
      JOINT Spine1
      {
        OFFSET 13.1342 3.43533 0.764692
        CHANNELS 3 Zrotation Xrotation Yrotation
        JOINT Neck
        {
          OFFSET 29.8703 7.82586 -0.130764
          CHANNELS 3 Zrotation Xrotation Yrotation
          JOINT Head
          {
            OFFSET 9.52751 0.295786 -0.907742
            CHANNELS 3 Zrotation Xrotation Yrotation
            End Site
            {
              OFFSET 16.4037 0.713936 2.7358
            }
          }
        }
        JOINT LeftShoulder
        {
          OFFSET 27.5574 4.95586 2.47156
          CHANNELS 3 Zrotation Xrotation Yrotation
          JOINT LeftArm
          {
            OFFSET 1.20734 -0.998971 20.1238
            CHANNELS 3 Zrotation Xrotation Yrotation
            JOINT LeftForeArm
            {
              OFFSET 26.8049 -0.0536703 -0.155908
              CHANNELS 3 Zrotation Xrotation Yrotation
              JOINT LeftHand
              {
                OFFSET 26.6817 0 0.320147
                CHANNELS 3 Zrotation Xrotation Yrotation
                End Site
                {
                  OFFSET 18.6119 0 0.382219
                }
              }
            }
          }
        }
        JOINT RightShoulder
        {
          OFFSET 27.5927 4.71444 -2.65209
          CHANNELS 3 Zrotation Xrotation Yrotation
          JOINT RightArm
          {
            OFFSET 2.83739 -1.17114 -18.7564
            CHANNELS 3 Zrotation Xrotation Yrotation
            JOINT RightForeArm
            {
              OFFSET 28.839 -0.0548439 1.22491
              CHANNELS 3 Zrotation Xrotation Yrotation
              JOINT RightHand
              {
                OFFSET 26.5114 0 -0.101894
                CHANNELS 3 Zrotation Xrotation Yrotation
                End Site
                {
                  OFFSET 18.2168 0 0
                }
              }
            }
          }
        }
      }
    }
  }
  JOINT LeftUpLeg
  {
    OFFSET -4.76168 -1.9167 -10.2353
    CHANNELS 3 Zrotation Xrotation Yrotation
    JOINT LeftLeg
    {
      OFFSET 2.55951 -42.0585 -8.02213
      CHANNELS 3 Zrotation Xrotation Yrotation
      JOINT LeftFoot
      {
        OFFSET 3.16357 -42.5282 -3.95426
        CHANNELS 3 Zrotation Xrotation Yrotation
        JOINT LeftToeBase
        {
          OFFSET 0.346054 -6.02161 12.8035
          CHANNELS 3 Zrotation Xrotation Yrotation
          End Site
          {
            OFFSET 0.134235 -1.35082 5.13018
          }
        }
      }
    }
  }
  JOINT RightUpLeg
  {
    OFFSET -4.94151 -1.41743 10.6446
    CHANNELS 3 Zrotation Xrotation Yrotation
    JOINT RightLeg
    {
      OFFSET -2.56294 -42.0364 -7.94377
      CHANNELS 3 Zrotation Xrotation Yrotation
      JOINT RightFoot
      {
        OFFSET -3.0952 -42.555 -4.02241
        CHANNELS 3 Zrotation Xrotation Yrotation
        JOINT RightToeBase
        {
          OFFSET -0.0828122 -6.13587 12.8035
          CHANNELS 3 Zrotation Xrotation Yrotation
          End Site
          {
            OFFSET -0.131328 -1.35082 5.13018
          }
        }
      }
    }
  }
}
MOTION
Frames:	10
Frame Time:	0.00833333
-58.5915 91.7258 -62.2749 27.6136 -71.4661 -59.7467 -70.1915 0 88.8779 69.3217 64.9796 18.6525 11.415 14.8873 3.27455 -155.598 19.3833 174.696 -153.003 57.7688 178.054 0.00696775 -14.7502 -33.402 -83.5579 35.888 -89.1292 19.5495 13.153 -56.8226 0.420957 0.000575509 0.35866 -2.02428 5.62598 50.2144 -84.1568 -27.7475 65.2034 3.46352 -37.9837 20.2203 0.58676 0.000331129 0.0646653 -69.1975 1.17671 90.5427 -4.62064 50.3997 -13.1232 -1.74766 -5.06059 -0.358425 11.3867 -23.5528 0.656683 -30.2688 2.46905 82.2369 1.27921 35.8379 -1.22376 -6.89842 2.11233 1.00144 2.13858 -16.1875 -7.64897 
-58.6162 91.7036 -61.2183 27.044 -71.7811 -59.9459 -70.1915 0 88.8779 70.4757 65.0866 18.03 11.3027 14.9041 3.26391 -155.601 19.3881 174.666 -152.882 57.76 178 -0.00665443 -14.8108 -33.3977 -83.6943 36.3259 -88.5033 19.1963 13.0117 -56.5886 0.420957 0.000575507 0.35866 -2.01986 5.63296 50.1004 -84.453 -27.5036 65.5018 3.39744 -37.9724 20.1389 0.58676 0.000331129 0.0646653 -68.6969 2.21068 90.8123 -4.96374 52.2764 -12.7841 -2.44181 -2.63927 -0.0868582 11.8326 -24.3736 0.978515 -30.5502 2.9653 81.7549 1.32476 36.8631 -1.17423 -7.84304 1.76771 1.14473 2.04854 -14.7163 -7.32235 
-58.6782 91.7119 -60.1607 26.4516 -72.0971 -60.3382 -70.1915 0 88.8779 71.2909 65.2397 17.4385 11.1884 14.9748 3.33987 -155.577 19.424 174.603 -152.884 57.8013 178.022 -0.0150549 -14.8489 -33.3912 -83.6965 36.7727 -87.9736 18.8455 12.9038 -56.2858 0.420957 0.000575505 0.35866 -2.01749 5.64419 49.994 -84.7388 -27.3952 65.8034 3.60314 -38.1841 20.254 0.58676 0.000331128 0.0646653 -68.122 3.01971 91.1561 -5.4702 54.1868 -12.6491 -3.14199 -0.307241 0.240857 11.6836 -23.9049 2.14665 -30.8967 3.47104 81.5774 1.33955 37.7741 -1.34944 -8.55125 1.27046 1.2464 1.94451 -13.2122 -6.82235 
-58.8009 91.7549 -59.0915 25.8235 -72.4138 -60.8933 -70.1915 0 88.8779 71.8935 65.4287 16.848 11.0718 15.0887 3.46264 -155.53 19.4849 174.503 -152.968 57.8819 178.11 -0.0122781 -14.8419 -33.3618 -83.5833 37.2369 -87.5224 18.4973 12.8269 -55.917 0.420957 0.000575503 0.35866 -2.01784 5.66028 49.9038 -84.9699 -27.4102 66.1441 4.00956 -38.4769 20.5218 0.58676 0.000331127 0.0646653 -67.4628 3.63122 91.6777 -6.07076 56.1503 -12.6783 -3.86348 2.07147 0.620121 11.0757 -22.571 3.93644 -31.3124 3.93842 81.5706 1.34606 38.5696 -1.68702 -9.16088 0.628232 1.33064 1.80349 -11.6534 -6.16078 
-58.9631 91.8298 -58.0235 25.2179 -72.7111 -61.4653 -70.1915 0 88.8779 72.497 65.636 16.2195 10.9223 15.2245 3.56682 -155.476 19.5666 174.392 -153.095 57.9927 178.25 -0.00209887 -14.8081 -33.3005 -83.38 37.6662 -87.1541 18.1408 12.7801 -55.4641 0.420957 0.000575501 0.35866 -2.01942 5.6794 49.816 -85.0116 -27.5717 66.5758 4.48679 -38.5187 20.8717 0.58676 0.000331126 0.0646653 -66.7083 4.06748 92.2687 -6.59768 58.129 -12.5951 -4.51596 4.20281 0.978837 10.2081 -20.915 5.82226 -31.7996 4.36853 81.6205 1.35152 39.2199 -2.0835 -9.66246 -0.0796498 1.39702 1.63286 -10.1104 -5.45229 
-59.1278 91.9296 -56.9708 24.706 -72.9705 -61.8955 -70.1915 0 88.8779 73.3147 65.8435 15.5139 10.7103 15.3612 3.58681 -155.432 19.6653 174.298 -153.228 58.1244 178.427 0.00489815 -14.7846 -33.2608 -83.1105 38.008 -86.8754 17.7648 12.762 -54.9087 0.420957 0.000575498 0.35866 -2.0217 5.70163 49.7223 -84.7267 -27.8994 67.1544 4.89343 -37.9798 21.2264 0.58676 0.000331125 0.0646653 -65.8438 4.44312 92.7167 -6.95845 60.0859 -12.0578 -4.99129 5.79308 1.24305 9.39775 -19.496 7.32313 -32.3575 4.78021 81.6144 1.3544 39.6966 -2.4299 -10.0471 -0.773864 1.44508 1.45592 -8.65655 -4.80738 
-59.2586 92.0471 -55.9471 24.3503 -73.1894 -62.0751 -70.1915 0 88.8779 74.5195 66.0528 14.6421 10.3917 15.4921 3.48952 -155.409 19.7883 174.236 -153.39 58.2893 178.681 -0.00170716 -14.8086 -33.296 -82.7674 38.2331 -86.702 17.3495 12.7577 -54.2449 0.420957 0.000575496 0.35866 -2.02426 5.72709 49.614 -84.0589 -28.4303 67.9001 5.1715 -36.7031 21.5823 0.58676 0.000331124 0.0646653 -64.8478 4.83127 92.8458 -7.26855 62.0521 -10.7043 -5.28054 6.67883 1.3941 8.75249 -18.3911 8.4557 -33.0204 5.19163 81.4938 1.33975 39.9405 -2.72344 -10.2826 -1.46855 1.46872 1.28161 -7.23835 -4.18156 
-59.3426 92.1853 -54.9588 24.1113 -73.3778 -62.0975 -70.1915 0 88.8779 75.9655 66.2686 13.6451 9.9951 15.6288 3.3149 -155.395 19.935 174.188 -153.593 58.487 179.008 -0.0288467 -14.9022 -33.4428 -82.3371 38.3776 -86.6344 16.9066 12.7691 -53.4821 0.420957 0.000575493 0.35866 -2.0264 5.75624 49.4783 -83.0699 -29.1275 68.8071 5.38051 -34.8944 21.9781 0.58676 0.000331123 0.0646653 -63.728 5.18897 92.7415 -7.7369 64.0145 -8.61994 -5.41663 7.0454 1.46935 8.12027 -17.3333 9.43953 -33.776 5.59046 81.3205 1.30577 39.9842 -3.00857 -10.3849 -2.19429 1.47024 1.09773 -5.84192 -3.53773 
-59.4003 92.3465 -53.9976 23.9099 -73.5375 -62.1041 -70.1915 0 88.8779 77.3813 66.4795 12.6846 9.60091 15.7776 3.10679 -155.375 20.0891 174.134 -153.78 58.6893 179.324 -0.0705234 -15.0407 -33.6655 -81.8353 38.4852 -86.6549 16.4719 12.821 -52.624 0.420957 0.00057549 0.35866 -2.0285 5.78892 49.3232 -81.7983 -29.8945 69.8913 5.55333 -32.7697 22.4009 0.58676 0.000331122 0.0646653 -62.5152 5.51264 92.5686 -8.3901 65.8744 -6.14799 -5.34899 7.1225 1.47756 7.52706 -16.3709 10.1275 -34.5527 5.95644 81.1638 1.26799 39.9383 -3.24554 -10.4173 -2.89638 1.46162 0.920239 -4.603 -2.99301 
-59.4452 92.5219 -53.0555 23.6603 -73.6702 -62.2427 -70.1915 0 88.8779 78.4887 66.6782 11.9295 9.28896 15.9449 2.90912 -155.33 20.2346 174.054 -153.892 58.8688 179.544 -0.117365 -15.1916 -33.9093 -81.278 38.5994 -86.7448 16.0791 12.9404 -51.6741 0.420957 0.000575487 0.35866 -2.03169 5.82426 49.1716 -80.2877 -30.6327 71.1562 5.73173 -30.5423 22.8352 0.58676 0.000331121 0.0646653 -61.244 5.81456 92.5158 -9.09557 67.5564 -3.77472 -5.02996 7.13975 1.42802 7.00919 -15.5508 10.3744 -35.2804 6.26564 81.0934 1.245 39.9139 -3.39655 -10.4422 -3.52014 1.45479 0.779407 -3.6583 -2.66303 
